<svg id="Layer_1" data-name="Layer 1" xmlns="http://www.w3.org/2000/svg" viewBox="0 0 47.17 45.99"><defs><style>.cls-1{fill:#00005b;}.cls-2{fill:#99f;}</style></defs><title>features-icon-3</title><g id="vlpa"><g id="vlpb"><g id="vlpc"><g id="vlpd"><path class="cls-1" d="M8.35,1.26H38.82a8.35,8.35,0,0,1,8.35,8.35V38.9a8.35,8.35,0,0,1-8.35,8.35H8.35A8.35,8.35,0,0,1,0,38.9V9.61A8.35,8.35,0,0,1,8.35,1.26Z" transform="translate(0 -1.26)"/></g></g></g><g id="vlpe"><g id="vlpf"><path class="cls-2" d="M18.95,28.77H11.64l-1.49,4.64a.34.34,0,0,1-.37.28H6.07c-.22,0-.28-.12-.22-.35l6.33-18.14c.06-.2.12-.37.2-.61a6.87,6.87,0,0,0,.12-1.28.19.19,0,0,1,.16-.22h5.09c.14,0,.24.06.26.16l7.17,20c.06.22,0,.31-.2.31H20.87a.3.3,0,0,1-.31-.22l-1.61-4.72Zm-6.17-3.91h5c-.12-.41-.28-.9-.45-1.42s-.35-1.1-.53-1.69-.37-1.2-.57-1.81-.37-1.18-.53-1.75-.29-1.06-.43-1.53h0a24.13,24.13,0,0,1-.67,2.54c-.29.94-.59,1.93-.9,2.91S13.07,24,12.78,24.86Z" transform="translate(0 -1.26)"/><path class="cls-2" d="M36.75,27H30.52a4.33,4.33,0,0,0,.61,1.75,3.12,3.12,0,0,0,1.43,1.18,6.11,6.11,0,0,0,2.52.49,11.82,11.82,0,0,0,2-.22,7.38,7.38,0,0,0,1.75-.45c.1-.08.16,0,.16.16v3a1,1,0,0,1,0,.24.46.46,0,0,1-.14.14,8.41,8.41,0,0,1-2,.59,13.28,13.28,0,0,1-2.79.24,9.31,9.31,0,0,1-3.77-.69,6.62,6.62,0,0,1-2.48-1.87A7.21,7.21,0,0,1,26.49,29a10.18,10.18,0,0,1,.08-6A8,8,0,0,1,28,20.3a7.12,7.12,0,0,1,2.38-1.87,7.42,7.42,0,0,1,3.28-.61,7.1,7.1,0,0,1,3,.61A5.41,5.41,0,0,1,38.82,20,7.19,7.19,0,0,1,40,22.25a7.73,7.73,0,0,1,.37,2.4c0,.47,0,.88,0,1.26s-.06.65-.08.83A.29.29,0,0,1,40,27l-.65,0a9.3,9.3,0,0,1-1.14.06c-.45,0-.92-.08-1.43-.08Zm-6.23-2.87h4.15c.51,0,.88,0,1.12,0a1,1,0,0,0,.45-.16v-.2a2.26,2.26,0,0,0-.12-.73,2.6,2.6,0,0,0-2.56-1.81A2.77,2.77,0,0,0,31,22.72,4.07,4.07,0,0,0,30.52,24.14Z" transform="translate(0 -1.26)"/></g></g></g></svg>