<svg id="Layer_1" data-name="Layer 1" xmlns="http://www.w3.org/2000/svg" viewBox="0 0 46.6 27.96"><defs><style>.cls-1{fill:#44a8b3;}</style></defs><title>features-icon-6</title><path class="cls-1" d="M11.65,17.86Q14,8.54,23.3,8.54c9.32,0,10.48,7,15.15,8.15q4.66,1.17,8.15-3.5Q44.27,22.52,35,22.52c-9.32,0-10.48-7-15.15-8.15Q15.14,13.2,11.65,17.86ZM0,31.84q2.33-9.32,11.65-9.32c9.32,0,10.49,7,15.15,8.15q4.66,1.17,8.15-3.5Q32.62,36.5,23.3,36.5c-9.32,0-10.49-7-15.15-8.15Q3.5,27.18,0,31.84Z" transform="translate(0 -8.54)"/></svg>