<svg id="Layer_1" data-name="Layer 1" xmlns="http://www.w3.org/2000/svg" viewBox="0 0 47.33 46.15"><defs><style>.cls-1{fill:#300;}.cls-2{fill:#ff9a00;}</style></defs><title>features-icon-2</title><g id="vlpa"><g id="vlpb"><g id="vlpc"><g id="vlpd"><path class="cls-1" d="M8.38.75H38.95a8.37,8.37,0,0,1,8.38,8.38V38.52a8.37,8.37,0,0,1-8.38,8.38H8.38A8.37,8.37,0,0,1,0,38.52V9.13A8.37,8.37,0,0,1,8.38.75Z" transform="translate(0 -0.75)"/></g></g></g><g id="vlpe"><g id="vlpf"><path class="cls-2" d="M22.88,28.36H15.54L14,33a.35.35,0,0,1-.37.28H10c-.22,0-.28-.12-.22-.35l6.35-18.28c.06-.2.12-.41.2-.65a6.89,6.89,0,0,0,.12-1.28.2.2,0,0,1,.16-.22h5.11c.16,0,.24.06.26.16L29.13,33c.06.22,0,.32-.2.32H24.81a.3.3,0,0,1-.32-.22l-1.62-4.69Zm-6.19-4h5c-.12-.41-.28-.91-.45-1.42s-.35-1.1-.53-1.7-.37-1.2-.57-1.81-.37-1.18-.53-1.76-.3-1.06-.43-1.54h0a24.21,24.21,0,0,1-.67,2.54c-.3.95-.59,1.93-.91,2.92S17,23.53,16.68,24.36Z" transform="translate(0 -0.75)"/><path class="cls-2" d="M33.53,15.94a2.44,2.44,0,0,1-1.76-.69,2.56,2.56,0,0,1-.67-1.81,2.32,2.32,0,0,1,.71-1.76A2.53,2.53,0,0,1,33.56,11a2.36,2.36,0,0,1,1.79.69A2.49,2.49,0,0,1,36,13.43a2.5,2.5,0,0,1-.69,1.81,2.32,2.32,0,0,1-1.79.69ZM31.32,33.05V17.87c0-.2.08-.28.26-.28h3.9c.18,0,.26.1.26.28V33.05c0,.22-.08.32-.26.32H31.61A.28.28,0,0,1,31.32,33.05Z" transform="translate(0 -0.75)"/></g></g></g></svg>