<svg id="Layer_1" data-name="Layer 1" xmlns="http://www.w3.org/2000/svg" viewBox="0 0 47.01 45.83"><defs><style>.cls-1{fill:#00005b;}.cls-2{fill:#99f;}</style></defs><title>features-icon-4</title><g id="vlpa"><g id="vlpb"><g id="vlpc"><g id="vlpd"><path class="cls-1" d="M8.65,1.5H39a8.32,8.32,0,0,1,8.32,8.32V39A8.32,8.32,0,0,1,39,47.33H8.65A8.32,8.32,0,0,1,.32,39V9.82A8.32,8.32,0,0,1,8.65,1.5Z" transform="translate(-0.32 -1.5)"/></g></g></g><g id="vlpe"><g id="vlpf"><path class="cls-2" d="M11.49,33.62V13.45c0-.14.06-.22.2-.22.33,0,.65,0,1.1,0l1.49,0,1.7,0c.61,0,1.19,0,1.78,0a11.52,11.52,0,0,1,4,.61,7,7,0,0,1,2.62,1.61,6.24,6.24,0,0,1,1.43,2.23,7.5,7.5,0,0,1,.45,2.55,7,7,0,0,1-1.18,4.17A6.71,6.71,0,0,1,22,26.67a12.69,12.69,0,0,1-4.41.67c-.47,0-.78,0-1,0s-.47,0-.84,0v6.29a.24.24,0,0,1-.22.27h-3.8c-.16,0-.24-.08-.24-.25ZM15.76,17v6.58c.27,0,.53,0,.76,0h1a7.32,7.32,0,0,0,2.25-.35,3.37,3.37,0,0,0,1.61-1,3,3,0,0,0,.61-2,3.22,3.22,0,0,0-.45-1.74,2.84,2.84,0,0,0-1.37-1.12A5.75,5.75,0,0,0,17.89,17c-.51,0-1,0-1.33,0a4.48,4.48,0,0,0-.8,0Z" transform="translate(-0.32 -1.5)"/><path class="cls-2" d="M29.12,18.19h3.43a.44.44,0,0,1,.41.31,2,2,0,0,1,.12.49c0,.2.08.41.1.61s0,.45,0,.71a7.29,7.29,0,0,1,2.1-1.68,6.07,6.07,0,0,1,3-.76.24.24,0,0,1,.27.22V22c0,.16-.1.22-.31.22a8.52,8.52,0,0,0-2.12.2,8.06,8.06,0,0,0-1.65.53,3,3,0,0,0-1,.72v10c0,.2-.08.27-.25.27H29.37a.27.27,0,0,1-.31-.24V22.73c0-.47,0-1,0-1.47s0-1,0-1.53,0-.88-.08-1.33a.18.18,0,0,1,.14-.22s0,0,.06,0Z" transform="translate(-0.32 -1.5)"/></g></g></g></svg>