<svg id="Layer_2" data-name="Layer 2" xmlns="http://www.w3.org/2000/svg" viewBox="0 0 52.39 51.05"><defs><style>.cls-1{fill:#001e36;}.cls-2{fill:#31a8ff;}</style></defs><title>features-icon-1</title><path class="cls-1" d="M17.16.63H54.69a7.56,7.56,0,0,1,7.56,7.56v36a7.45,7.45,0,0,1-7.45,7.45H17.25a7.4,7.4,0,0,1-7.4-7.4V7.94A7.31,7.31,0,0,1,17.16.63Zm4.49,24.59c0,3.62,0,7.23,0,10.85a.65.65,0,0,0,.67.65c1.12,0,2.24,0,3.35,0,.5,0,.69-.13.68-.66,0-2,0-4,0-6.07a.61.61,0,0,1,.61-.62c1.33,0,2.66,0,4-.12a8.21,8.21,0,0,0,4.9-2.08A7.4,7.4,0,0,0,38.09,21a7,7,0,0,0-4.21-6.33,11.31,11.31,0,0,0-5-1c-2.2,0-4.4.09-6.6.1-.53,0-.66.18-.66.68C21.67,18,21.66,21.62,21.66,25.22ZM40.57,31.8a2.51,2.51,0,0,0,0,.83,6.86,6.86,0,0,1,0,2.48c-.1.65,0,1.09.53,1.21a34.16,34.16,0,0,0,3.63.77,9.83,9.83,0,0,0,5.4-.75,4.93,4.93,0,0,0,3-4.24,4.53,4.53,0,0,0-2.53-4.69c-.94-.51-1.94-.9-2.91-1.37a15.77,15.77,0,0,1-2.12-1.12,1,1,0,0,1,.26-1.83,3.79,3.79,0,0,1,1.05-.18,10.27,10.27,0,0,1,4.72.92c.49.23.63.15.63-.37,0-1.06,0-2.11,0-3.17,0-.34-.11-.56-.46-.63-1-.19-2-.45-3-.55a10.17,10.17,0,0,0-4.64.43,5.09,5.09,0,0,0-3.59,4.31,4.69,4.69,0,0,0,2.6,4.92c1.09.62,2.28,1.07,3.41,1.61a7.39,7.39,0,0,1,1.38.76c.87.68.77,1.43-.26,1.82a3.38,3.38,0,0,1-.92.21A10.47,10.47,0,0,1,41.09,32C40.94,31.94,40.79,31.89,40.57,31.8Z" transform="translate(-9.85 -0.63)"/><path class="cls-2" d="M21.66,25.22c0-3.6,0-7.2,0-10.79,0-.5.12-.68.66-.68,2.2,0,4.4-.08,6.6-.1a11.31,11.31,0,0,1,5,1A7,7,0,0,1,38.09,21a7.4,7.4,0,0,1-2.27,6.21,8.21,8.21,0,0,1-4.9,2.08c-1.32.13-2.65.12-4,.12-.47,0-.61.13-.61.6,0,2,0,4.06,0,6.09,0,.53-.18.67-.68.66-1.12,0-2.25,0-3.38,0-.49,0-.65-.16-.64-.65C21.67,32.45,21.66,28.83,21.66,25.22Zm4.73.08A12,12,0,0,0,30.74,25a3.3,3.3,0,0,0,2.66-3.6,3.13,3.13,0,0,0-2.71-3.27,26.36,26.36,0,0,0-4-.21c-.1,0-.28.26-.29.4,0,.88,0,1.77,0,2.66C26.38,22.39,26.38,23.81,26.38,25.29Z" transform="translate(-9.85 -0.63)"/><path class="cls-2" d="M40.57,31.8c.22.09.37.14.51.22a10.47,10.47,0,0,0,5.73,1.17,3.38,3.38,0,0,0,.84-.18A1,1,0,0,0,48,31.15a7.39,7.39,0,0,0-1.38-.76c-1.13-.54-2.32-1-3.41-1.61a4.69,4.69,0,0,1-2.6-4.92,5.09,5.09,0,0,1,3.59-4.31,10.17,10.17,0,0,1,4.64-.43c1,.1,2,.36,3,.55.34.07.46.29.46.63,0,1.06,0,2.11,0,3.17,0,.51-.14.6-.63.37a10.27,10.27,0,0,0-4.72-.92,3.79,3.79,0,0,0-1.05.18,1,1,0,0,0-.38,1.74A14.17,14.17,0,0,0,47.69,26c1,.47,2,.86,2.91,1.37a4.53,4.53,0,0,1,2.53,4.69,4.93,4.93,0,0,1-3,4.24,9.83,9.83,0,0,1-5.4.75,34.16,34.16,0,0,1-3.63-.77c-.43-.1-.58-.39-.57-.83,0-1,0-2.08,0-3.12C40.52,32.2,40.55,32,40.57,31.8Z" transform="translate(-9.85 -0.63)"/><path class="cls-1" d="M26.38,25.29c0-1.49,0-2.9,0-4.31,0-.89,0-1.77,0-2.66,0-.14.19-.4.29-.4a26.36,26.36,0,0,1,4,.21,3.13,3.13,0,0,1,2.71,3.27A3.3,3.3,0,0,1,30.74,25,12,12,0,0,1,26.38,25.29Z" transform="translate(-9.85 -0.63)"/></svg>